PathFileType	4	(X/Y/Z)	C:/Users/beibeiliu/ov580/test_trc/User3\sequence.36_training_dense_left.trc
DataRate	CameraRate	NumFrames	NumMarkers	Units	OrigDataRate	OrigDataStartFrame	OrigNumFrames
120	120	13	19	mm	120	61	91
Frame#	Time	ThumbCMC			ThumbMCP			ThumbIP			ThumbTip			IndexMCP			IndexPIP			IndexTip			MiddleMCP			MiddlePIP			MiddleTip			RingMCP			RingPIP			RingTip			PinkyMCP			PinkyPIP			PinkyTip			BackHand1			BackHand2			BackHand3	
		X0	Y0	Z0	X1	Y1	Z1	X2	Y2	Z2	X3	Y3	Z3	X4	Y4	Z4	X5	Y5	Z5	X6	Y6	Z6	X7	Y7	Z7	X8	Y8	Z8	X9	Y9	Z9	X10	Y10	Z10	X11	Y11	Z11	X12	Y12	Z12	X13	Y13	Z13	X14	Y14	Z14	X15	Y15	Z15	X16	Y16	Z16	X17	Y17	Z17	X18	Y18	Z18	
60	0.5	-126.68	63.2108	-31.4554	-105.101	69.3675	-53.5928	-83.3965	73.306	-79.727	-65.2123	67.2327	-90.1036	-85.0965	39.307	-88.7867	-59.5985	58.047	-77.7978	-83.0151	54.9407	-50.2083	-69.5746	28.0404	-80.7976	-51.4408	46.5778	-63.4257	-85.6398	46.6126	-36.9152	-62.4883	14.5609	-63.4246	-49.2723	35.2709	-43.9024	-75.5517	41.5234	-27.3619	-61.3097	4.52163	-47.1293	-50.6732	26.1881	-32.7134	-75.8763	30.6443	-16.4229	-111.867	-2.86669	-40.9968	-130.504	2.49175	-10.9056	-132.985	23.8242	-38.9381	
61	0.508333	-156.173	43.6688	-37.443	-146.098	56.4702	-64.0093	-133.374	64.7531	-90.2023	-114.218	68.1358	-108.936	-110.019	32.8413	-95.2443	-98.6751	65.2218	-91.8792	-116.558	63.675	-62.4521	-91.0468	34.1239	-89.7287	-85.2617	62.4487	-76.6289	-108.656	52.143	-46.7123	-76.503	26.6607	-71.307	-74.8376	56.6677	-62.8907	-96.8339	49.1622	-37.4855	-65.7517	23.5763	-56.312	-69.3783	50.6961	-49.7742	-91.0021	43.8104	-31.5716	-106.894	-5.20338	-37.7456	-122.422	-3.74307	-9.53246	-146.542	6.50481	-37.8178	
62	0.516667	-178.886	21.2625	-28.998	-175.059	29.1429	-61.8989	-170.407	35.0261	-86.4724	-158.219	37.7321	-111.373	-144.29	11.2796	-97.9747	-139.992	42.5405	-101.794	-145.86	46.3653	-66.2762	-124.613	11.2992	-93.6004	-124.234	45.2334	-90.0057	-133.619	39.7445	-53.2837	-106.043	12.434	-80.9743	-107.899	41.9123	-79.4592	-124.22	37.2149	-47.509	-93.4999	10.6319	-65.384	-96.4701	38.8957	-65.9522	-113.793	37.1151	-38.9656	-126.815	-19.0488	-30.9224	-135.151	-14.5298	-4.35172	-160.62	-12.6478	-28.9223	
63	0.525	-196.195	11.983	-19.0118	-197.905	15.8985	-50.1959	-198.002	15.8196	-78.3318	-191.736	14.6163	-103.528	-180.19	-12.0744	-88.9963	-171.1	18.4705	-99.5257	-171.628	31.0651	-68.1344	-157.636	-14.0077	-90.4413	-152.819	16.5243	-94.3658	-160.649	21.8123	-54.7958	-140.976	-16.7686	-77.7815	-136.468	14.8672	-82.4534	-144.834	19.0561	-50.8125	-126.581	-17.9053	-64.744	-121.441	10.5073	-72.5454	-137.78	18.49	-46.3692	-155.039	-35.0449	-25.0014	-152.342	-29.7146	6.60433	-186.883	-25.6226	-18.1397	
64	0.533333	-210.004	12.9789	-11.618	-213.859	18.88	-40.6267	-221.862	14.4535	-73.9558	-216.23	8.90072	-94.3553	-212.291	-19.3364	-80.9925	-196.543	6.1716	-95.8055	-190.845	23.6011	-71.4959	-196.327	-27.3368	-82.6074	-177.516	0.349499	-89.0122	-177.823	8.99898	-50.6558	-174.358	-34.6457	-74.1438	-161.315	-7.54304	-80.0325	-168.048	3.79753	-48.1189	-162.175	-37.5458	-61.388	-150.455	-13.3491	-71.3904	-152.795	0.950399	-44.3367	-187.774	-44.5002	-15.7837	-182.09	-34.1854	12.6278	-213.412	-20.3809	-6.76442	
65	0.541667	-217.958	22.9653	-7.77165	-224.187	24.4796	-40.3349	-228.424	25.998	-65.0787	-231.065	14.6688	-89.5845	-243.415	-8.04342	-69.9172	-218.22	3.01122	-93.0098	-198.393	19.2761	-70.2568	-229.655	-22.6275	-76.3215	-200.398	-9.602	-85.4899	-191.84	0.290593	-51.1676	-214.345	-34.082	-68.5623	-188.683	-18.3676	-74.1369	-186.667	-7.6944	-43.3664	-201.344	-46.3674	-58.8209	-179.576	-32.3068	-66.3256	-179.744	-11.567	-43.4327	-224.496	-38.2022	-7.76484	-215.702	-35.5962	17.403	-236.321	-8.62475	1.64537	
66	0.55	-213.45	32.5878	-6.51137	-217.438	38.9682	-36.7138	-226.93	36.5367	-65.9894	-234.353	16.4523	-86.0101	-254.073	22.7395	-67.7968	-231.599	18.8481	-94.865	-202.615	17.3667	-76.3333	-250.687	-2.38101	-75.2433	-222.214	-1.33574	-89.1617	-206.918	0.280973	-49.2721	-243.055	-19.9205	-67.2169	-213.282	-22.6635	-73.6564	-204.159	-10.9665	-45.0413	-241.094	-38.1051	-54.0291	-215.729	-33.5547	-66.7817	-200.745	-24.5906	-41.5359	-254.972	-15.0588	-6.18789	-242.434	-18.4457	17.7588	-246.549	16.3145	3.66148	
67	0.558333	-202.677	36.6406	-5.48926	-202.457	43.934	-35.5719	-212.286	48.8779	-66.5818	-232.398	27.7853	-78.2775	-244.145	48.0079	-67.3872	-227.346	37.274	-94.3041	-202.329	19.3555	-80.4955	-253.585	27.9993	-73.1581	-229.468	11.1991	-88.0753	-215.703	3.78182	-53.4132	-257.086	9.43728	-67.3911	-231.052	-7.5407	-73.7208	-220.117	-3.20541	-44.2988	-263.122	-8.54391	-59.9198	-238.834	-19.1153	-68.2335	-223.124	-14.8594	-42.086	-265.423	16.9953	-7.08723	-254.048	7.89273	15.8458	-239.115	38.2257	2.78066	
68	0.566667	-190.999	37.1315	-4.68474	-185.755	47.8899	-35.346	-194.695	55.1386	-61.5871	-218.811	47.6058	-79.8049	-221.059	70.3236	-69.2293	-210.426	49.3735	-94.5732	-201.359	24.2769	-79.0557	-240.688	58.0859	-73.7546	-227.801	33.9106	-90.0188	-214.324	18.4647	-56.4044	-250.834	44.0922	-67.0174	-236.931	17.6191	-78.4863	-227.306	8.86052	-48.8191	-267.448	28.3652	-60.8509	-248.005	11.1095	-73.6866	-231.488	3.30812	-50.849	-256.214	49.0121	-11.1126	-253.963	33.316	16.4472	-225.276	53.807	1.60735	
69	0.575	-180.836	39.0349	-7.73405	-170.304	50.1237	-39.3216	-172.687	59.3269	-67.7406	-193.838	58.2249	-86.7739	-191.714	80.4926	-73.2433	-190.203	55.3038	-95.3586	-190.374	30.7128	-76.7285	-217.574	73.0976	-80.1314	-212.21	46.9821	-93.7951	-205.967	29.2806	-56.7122	-235.096	63.2205	-72.5366	-229.225	36.8095	-84.8674	-217.641	24.9589	-54.9388	-251.692	56.0976	-66.6112	-238.808	34.6213	-79.7674	-229.149	17.5851	-58.4789	-238.67	68.4964	-11.4927	-239.482	50.2654	14.3681	-205.653	64.9409	-0.991041	
70	0.583333	-158.669	43.9238	-18.2694	-153.031	44.8468	-48.4395	-147.963	47.9858	-79.8188	-161.415	50.2402	-103.414	-169.049	77.2841	-86.5467	-167.992	50.6525	-103.168	-176.777	31.2617	-71.937	-191.91	75.0499	-89.2439	-193.442	45.459	-101.12	-187.391	31.7911	-64.3253	-214.462	69.6352	-82.9901	-208.632	37.9103	-90.2527	-202.533	32.3558	-56.7793	-231.691	64.1455	-77.2912	-227.107	39.3989	-86.6764	-212.469	27.4062	-59.6813	-216.687	81.3882	-25.9456	-213.26	66.0111	2.98442	-182.59	73.6565	-12.2861	
71	0.591667	-142.116	43.5447	-32.1562	-134.43	33.4649	-57.9947	-135.53	32.8554	-89.3346	-143.825	29.4949	-114.936	-157.862	62.8775	-100.819	-158.999	31.4219	-107.406	-163.05	26.9555	-74.0852	-176.641	64.8738	-103.331	-177.009	32.0508	-108.992	-175.136	27.1156	-67.2341	-195.12	59.6887	-97.3529	-197.334	32.1489	-100.096	-188.871	29.0092	-63.0862	-215.149	60.4047	-83.3028	-209.832	32.6128	-91.3171	-198.016	25.2356	-62.2022	-195.317	83.1957	-42.8217	-195.04	74.9279	-11.3664	-159.23	75.6557	-29.4017	
72	0.6	-126.825	33.5664	-35.0922	-122.786	20.5476	-64.3239	-121.387	12.271	-94.8575	-136.501	9.59544	-116.95	-143.566	44.4593	-110.515	-150.596	13.4143	-112.084	-149.415	13.942	-78.7054	-165.922	46.1899	-113.725	-171.51	14.7195	-109.108	-166.467	17.7065	-72.0742	-183.516	46.3712	-104.146	-185.556	15.772	-99.4891	-174.139	19.6563	-66.4348	-197.143	49.4909	-91.2579	-199.145	20.7855	-91.8569	-189.249	18.6578	-60.6934	-177.792	79.6541	-52.4757	-174.558	75.5305	-19.9581	-144.133	69.4757	-39.6515	
